<?xml version="1.0" encoding="UTF-8" standalone="no"?>
<svg width="501" height="222" viewBox="0 0 1503 666" version="1.1" xmlns="http://www.w3.org/2000/svg">
    <path fill="#fefefe" d=" M 0.00 0.00 L 1503.00 0.00 L 1503.00 666.00 L 0.00 666.00 L 0.00 504.44 C 18.89 514.85 37.25 526.17 55.99 536.85 C 96.16 511.53 142.11 496.57 188.78 489.04 C 192.75 500.93 196.06 513.03 198.86 525.26 C 205.04 548.72 208.20 572.85 210.20 597.00 C 211.54 607.76 210.84 618.61 211.28 629.42 C 226.33 638.05 241.17 647.04 256.14 655.82 C 259.68 657.80 262.95 660.55 266.95 661.54 C 272.78 659.75 277.53 655.64 282.85 652.79 C 296.28 645.17 309.33 636.91 322.81 629.41 C 322.96 616.44 323.48 603.48 324.32 590.53 C 326.98 556.04 334.74 522.12 345.14 489.18 C 365.86 492.30 386.17 497.60 406.19 503.71 C 425.66 510.31 444.77 518.18 462.72 528.26 C 467.88 530.95 472.52 534.78 478.11 536.55 C 482.09 535.53 485.34 532.79 488.87 530.80 C 504.00 521.78 519.27 512.98 534.37 503.90 C 534.59 483.26 534.28 462.61 534.53 441.97 C 534.50 438.67 534.96 434.39 531.23 432.89 C 492.93 411.46 460.74 380.55 433.61 346.33 C 430.85 342.50 427.33 339.15 425.33 334.84 C 425.51 332.70 427.18 331.05 428.34 329.35 C 439.63 315.39 450.86 301.30 463.62 288.63 C 479.14 272.63 496.56 258.52 514.94 245.94 C 521.24 241.69 528.03 238.25 534.39 234.10 C 534.55 213.38 534.30 192.67 534.53 171.95 C 534.55 168.91 534.68 165.15 531.47 163.61 C 518.76 155.95 506.06 148.26 493.24 140.80 C 488.84 138.24 484.78 135.08 480.15 132.94 C 477.85 131.69 475.60 133.63 473.61 134.60 C 434.68 158.79 390.10 172.33 345.19 180.09 C 333.19 141.87 324.49 102.26 323.47 62.09 C 322.86 54.60 323.10 47.08 322.81 39.58 C 307.22 30.85 291.95 21.59 276.61 12.43 C 273.46 10.62 270.51 8.29 266.97 7.30 C 264.82 7.74 262.96 8.99 261.10 10.09 C 253.10 15.21 244.73 19.72 236.66 24.73 C 228.20 29.96 219.36 34.54 211.13 40.12 C 211.02 51.37 211.48 62.66 209.96 73.83 C 208.21 95.48 205.42 117.10 200.30 138.23 C 196.87 152.26 193.55 166.35 188.65 179.96 C 148.26 173.25 108.42 161.30 72.35 141.70 C 67.16 139.00 62.50 135.37 57.20 132.90 C 54.91 131.73 52.65 133.67 50.66 134.63 C 33.84 144.99 16.67 154.80 0.00 165.40 L 0.00 0.00 Z" />
    <path fill="#0c4e81" d=" M 261.10 10.09 C 262.96 8.99 264.82 7.74 266.97 7.30 C 270.51 8.29 273.46 10.62 276.61 12.43 C 291.95 21.59 307.22 30.85 322.81 39.58 C 323.10 47.08 322.86 54.60 323.47 62.09 C 324.49 102.26 333.19 141.87 345.19 180.09 C 390.10 172.33 434.68 158.79 473.61 134.60 C 475.60 133.63 477.85 131.69 480.15 132.94 C 484.78 135.08 488.84 138.24 493.24 140.80 C 506.06 148.26 518.76 155.95 531.47 163.61 C 534.68 165.15 534.55 168.91 534.53 171.95 C 534.30 192.67 534.55 213.38 534.39 234.10 C 528.03 238.25 521.24 241.69 514.94 245.94 C 496.56 258.52 479.14 272.63 463.62 288.63 C 450.86 301.30 439.63 315.39 428.34 329.35 C 427.18 331.05 425.51 332.70 425.33 334.84 C 427.33 339.15 430.85 342.50 433.61 346.33 C 460.74 380.55 492.93 411.46 531.23 432.89 C 534.96 434.39 534.50 438.67 534.53 441.97 C 534.28 462.61 534.59 483.26 534.37 503.90 C 519.27 512.98 504.00 521.78 488.87 530.80 C 485.34 532.79 482.09 535.53 478.11 536.55 C 472.52 534.78 467.88 530.95 462.72 528.26 C 444.77 518.18 425.66 510.31 406.19 503.71 C 386.17 497.60 365.86 492.30 345.14 489.18 C 334.74 522.12 326.98 556.04 324.32 590.53 C 323.48 603.48 322.96 616.44 322.81 629.41 C 309.33 636.91 296.28 645.17 282.85 652.79 C 277.53 655.64 272.78 659.75 266.95 661.54 C 262.95 660.55 259.68 657.80 256.14 655.82 C 241.17 647.04 226.33 638.05 211.28 629.42 C 210.84 618.61 211.54 607.76 210.20 597.00 C 208.20 572.85 205.04 548.72 198.86 525.26 C 196.06 513.03 192.75 500.93 188.78 489.04 C 142.11 496.57 96.16 511.53 55.99 536.85 C 37.25 526.17 18.89 514.85 0.00 504.44 L 0.00 434.76 C 9.66 428.94 19.29 423.08 28.47 416.52 C 59.74 393.98 86.05 365.34 109.40 334.85 C 101.60 323.73 92.95 313.22 83.82 303.16 C 59.89 275.95 31.85 252.06 0.00 234.62 L 0.00 165.40 C 16.67 154.80 33.84 144.99 50.66 134.63 C 52.65 133.67 54.91 131.73 57.20 132.90 C 62.50 135.37 67.16 139.00 72.35 141.70 C 108.42 161.30 148.26 173.25 188.65 179.96 C 193.55 166.35 196.87 152.26 200.30 138.23 C 205.42 117.10 208.21 95.48 209.96 73.83 C 211.48 62.66 211.02 51.37 211.13 40.12 C 219.36 34.54 228.20 29.96 236.66 24.73 C 244.73 19.72 253.10 15.21 261.10 10.09 Z" />
    <path fill="#fefefe" d=" M 231.03 51.33 C 243.26 44.77 254.88 37.14 267.01 30.40 C 276.52 35.65 285.71 41.43 295.13 46.83 C 297.71 48.54 300.78 49.77 302.74 52.26 C 303.53 66.03 303.92 79.87 305.53 93.59 C 308.75 124.30 315.93 154.47 324.96 183.96 C 316.37 185.30 307.69 185.94 299.02 186.46 C 294.01 187.02 288.98 187.37 283.94 187.14 C 276.99 165.60 273.61 143.15 270.11 120.86 C 269.27 114.60 268.66 108.30 268.08 102.00 C 267.80 95.95 267.92 89.82 266.45 83.90 C 266.34 100.93 264.63 117.94 261.85 134.74 C 258.44 152.29 255.78 170.10 250.17 187.12 C 244.43 187.35 238.68 187.14 232.98 186.46 C 224.96 186.00 216.93 185.41 208.98 184.22 C 212.84 172.30 216.09 160.18 218.88 147.96 C 224.83 125.08 227.75 101.55 229.95 78.05 C 231.46 69.20 230.32 60.23 231.03 51.33 Z" />
    <path fill="#fefefe" d=" M 46.06 160.96 C 49.02 159.18 51.85 157.08 55.12 155.87 C 59.08 156.63 62.38 159.24 65.91 161.05 C 96.95 176.94 130.21 188.32 164.27 195.62 C 191.68 201.92 219.73 205.39 247.83 206.22 C 265.77 207.67 283.77 206.31 301.70 205.48 C 351.36 202.05 400.45 190.48 446.37 171.27 C 455.65 167.07 465.17 163.27 473.81 157.83 C 475.81 156.72 478.10 154.72 480.33 156.52 C 491.57 163.13 502.86 169.68 513.92 176.60 C 453.09 212.98 391.88 248.75 331.00 285.05 C 311.55 296.26 292.42 308.01 272.99 319.26 C 207.31 280.61 141.92 241.49 76.25 202.84 C 59.73 192.66 42.72 183.29 26.26 173.02 C 32.60 168.59 39.46 164.98 46.06 160.96 Z" />
    <path fill="#252727" d=" M 1346.39 161.37 C 1361.55 161.39 1376.71 161.46 1391.87 161.34 C 1392.07 172.16 1391.97 182.99 1391.93 193.82 C 1376.74 193.75 1361.56 193.86 1346.37 193.76 C 1346.49 182.97 1346.47 172.17 1346.39 161.37 Z" />
    <path fill="#252727" d=" M 637.14 165.77 C 642.73 165.09 648.38 165.36 654.00 165.35 C 673.34 165.34 692.67 165.35 712.01 165.34 C 727.22 165.81 742.97 166.47 756.94 173.21 C 766.63 177.90 774.46 187.18 775.70 198.09 C 776.26 204.77 776.48 211.75 773.98 218.10 C 770.68 226.83 764.26 234.06 756.62 239.30 C 763.54 242.11 770.58 245.71 774.87 252.08 C 783.20 263.92 783.37 279.73 779.05 293.11 C 776.11 302.69 768.49 310.29 759.68 314.70 C 748.68 320.32 736.23 322.22 724.04 322.86 C 695.08 322.85 666.13 322.89 637.18 322.84 C 637.15 270.48 637.24 218.13 637.14 165.77 Z" />
    <path fill="#252727" d=" M 954.14 165.30 C 969.07 165.38 983.99 165.38 998.92 165.29 C 999.09 217.82 998.99 270.35 998.97 322.88 C 984.02 322.85 969.07 322.86 954.12 322.87 C 954.09 270.35 954.03 217.82 954.14 165.30 Z" />
    <path fill="#252727" d=" M 1177.21 165.30 C 1202.48 165.41 1227.75 165.31 1253.02 165.35 C 1266.38 165.95 1280.14 166.17 1292.69 171.37 C 1301.25 174.47 1308.96 180.61 1313.00 188.88 C 1316.08 194.78 1316.21 201.57 1316.00 208.06 C 1315.63 221.00 1306.90 232.15 1296.66 239.31 C 1302.48 241.73 1308.42 244.50 1312.63 249.37 C 1320.15 257.52 1322.55 269.19 1321.74 279.98 C 1320.89 289.91 1317.72 300.27 1310.20 307.19 C 1305.45 312.18 1299.07 315.09 1292.83 317.69 C 1281.08 321.92 1268.42 323.13 1256.00 322.87 C 1229.73 322.84 1203.45 322.90 1177.18 322.84 C 1177.19 270.33 1177.13 217.81 1177.21 165.30 Z" />
    <path fill="#252727" d=" M 1427.02 173.02 C 1441.97 173.02 1456.93 172.98 1471.90 173.05 C 1471.91 184.70 1471.83 196.35 1471.93 208.00 C 1479.05 207.99 1486.17 208.04 1493.29 207.95 C 1494.56 216.90 1493.60 225.97 1493.91 234.98 C 1486.57 235.03 1479.25 234.98 1471.92 235.01 C 1471.85 249.02 1471.89 263.02 1471.88 277.03 C 1471.93 281.60 1472.77 287.62 1477.83 289.26 C 1483.04 290.90 1488.65 289.88 1494.02 290.74 C 1493.96 301.44 1494.04 312.13 1493.98 322.83 C 1481.70 324.18 1469.33 324.03 1457.01 323.72 C 1448.41 322.71 1438.20 322.03 1432.53 314.53 C 1426.45 306.30 1427.23 295.61 1426.52 285.94 C 1426.26 268.96 1426.62 251.98 1426.35 235.00 C 1421.34 234.88 1416.30 235.34 1411.32 234.80 C 1409.32 233.58 1410.19 230.96 1409.95 229.04 C 1410.17 222.47 1409.63 215.87 1410.21 209.32 C 1410.48 209.04 1411.04 208.48 1411.32 208.21 C 1416.51 207.65 1421.76 208.12 1426.99 208.00 C 1427.02 196.34 1426.97 184.68 1427.02 173.02 Z" />
    <path fill="#fefefe" d=" M 19.91 188.49 C 100.18 235.63 180.04 283.48 260.32 330.63 C 263.03 332.47 267.67 333.81 267.05 337.93 C 266.92 438.11 267.20 538.30 266.91 638.48 C 254.81 631.81 243.12 624.43 231.04 617.71 C 230.47 610.99 231.03 604.25 230.62 597.54 C 229.10 582.80 227.97 568.02 225.48 553.41 C 216.18 496.41 196.10 441.53 169.43 390.44 C 154.53 362.90 137.53 336.44 118.02 311.94 C 106.54 296.92 93.71 282.99 80.16 269.84 C 63.29 252.75 44.21 237.96 23.90 225.18 C 22.66 224.38 21.41 223.58 20.32 222.58 C 19.48 220.51 19.78 218.19 19.68 216.01 C 19.86 206.84 19.57 197.66 19.91 188.49 Z" />
    <path fill="#fefefe" d=" M 688.90 202.73 C 697.61 202.65 706.33 202.49 715.03 202.85 C 718.71 203.02 722.81 203.79 725.36 206.70 C 729.05 211.36 728.78 218.54 725.11 223.12 C 721.82 226.64 716.83 228.34 712.07 228.14 C 704.34 227.92 696.62 228.02 688.89 228.00 C 688.82 219.57 688.81 211.15 688.90 202.73 Z" />
    <path fill="#fefefe" d=" M 1228.94 202.74 C 1239.11 202.84 1249.40 201.98 1259.49 203.44 C 1266.57 204.48 1269.73 213.13 1267.32 219.26 C 1265.34 225.06 1258.87 228.13 1253.07 228.15 C 1245.02 227.95 1236.97 228.00 1228.93 227.99 C 1228.86 219.57 1228.85 211.16 1228.94 202.74 Z" />
    <path fill="#252727" d=" M 816.47 217.52 C 828.24 208.46 843.52 206.27 857.93 205.19 C 872.11 205.10 886.61 204.58 900.34 208.79 C 906.99 210.98 913.80 214.05 918.20 219.73 C 922.21 224.96 924.49 231.40 924.93 237.96 C 926.20 247.92 925.75 257.98 925.82 268.00 C 925.80 281.00 925.86 294.00 925.78 307.00 C 925.82 309.23 925.72 311.50 926.26 313.69 C 927.81 316.96 930.58 319.45 932.39 322.58 C 916.40 323.19 900.38 322.78 884.38 322.80 C 883.84 319.01 883.19 315.24 882.64 311.46 C 879.77 313.25 877.12 315.33 874.40 317.32 C 864.66 323.90 852.64 326.41 841.01 326.02 C 829.01 326.50 815.72 323.92 807.25 314.74 C 799.11 306.99 796.94 294.68 799.10 283.99 C 800.50 274.68 806.93 266.48 815.36 262.43 C 828.11 255.56 842.80 254.70 856.88 252.95 C 863.17 252.10 869.74 251.56 875.45 248.52 C 879.07 246.79 881.33 241.74 878.93 238.17 C 877.06 234.53 872.74 233.30 868.95 232.96 C 864.02 232.64 858.60 232.37 854.28 235.20 C 851.18 237.13 850.06 240.79 848.75 243.98 C 834.24 243.94 819.72 244.18 805.21 243.84 C 805.67 234.14 808.53 223.78 816.47 217.52 Z" />
    <path fill="#252727" d=" M 1071.89 205.89 C 1080.56 204.62 1089.32 205.43 1098.04 205.14 C 1110.99 205.94 1124.78 207.48 1135.51 215.49 C 1143.76 221.93 1146.42 232.96 1146.85 242.95 C 1146.87 261.96 1146.87 280.98 1146.84 300.00 C 1146.88 303.90 1146.59 307.84 1147.23 311.71 C 1148.04 315.98 1151.43 319.01 1153.53 322.67 C 1137.74 323.10 1121.93 322.79 1106.14 322.84 C 1105.25 319.00 1104.47 315.14 1103.48 311.34 C 1098.50 315.54 1093.25 319.65 1087.10 322.00 C 1078.23 325.68 1068.49 326.26 1059.00 326.02 C 1052.34 326.23 1045.73 324.76 1039.55 322.36 C 1029.45 318.36 1021.71 308.72 1020.32 297.91 C 1019.62 290.55 1019.70 282.77 1023.12 276.03 C 1027.25 267.01 1036.42 261.64 1045.51 258.67 C 1059.89 253.90 1075.24 254.20 1089.97 251.11 C 1094.13 250.25 1098.61 248.54 1100.83 244.66 C 1102.30 241.10 1100.53 236.55 1097.11 234.83 C 1093.09 232.64 1088.38 232.71 1083.95 232.84 C 1080.23 232.89 1076.34 234.01 1073.71 236.75 C 1071.98 238.78 1071.33 241.45 1070.51 243.93 C 1056.01 244.07 1041.51 244.01 1027.01 243.95 C 1026.36 233.24 1031.06 222.21 1039.96 216.02 C 1049.42 209.77 1060.69 206.81 1071.89 205.89 Z" />
    <path fill="#252727" d=" M 1346.79 208.00 C 1361.85 208.01 1376.91 207.98 1391.97 208.02 C 1391.96 246.30 1392.01 284.58 1391.94 322.87 C 1376.75 322.83 1361.56 322.94 1346.37 322.80 C 1346.55 295.20 1346.40 267.60 1346.45 240.00 C 1346.63 229.33 1346.03 218.64 1346.79 208.00 Z" />
    <path fill="#fefefe" d=" M 0.00 234.62 C 31.85 252.06 59.89 275.95 83.82 303.16 C 92.95 313.22 101.60 323.73 109.40 334.85 C 86.05 365.34 59.74 393.98 28.47 416.52 C 19.29 423.08 9.66 428.94 0.00 434.76 L 0.00 234.62 Z" />
    <path fill="#fefefe" d=" M 690.28 257.26 C 698.58 256.71 707.01 256.75 715.32 257.46 C 720.75 258.22 727.00 258.75 730.91 263.09 C 734.36 267.52 734.91 274.08 731.98 278.93 C 730.27 282.04 726.99 283.93 723.65 284.81 C 715.94 286.92 707.88 285.98 700.00 286.20 C 696.46 286.10 692.81 286.65 689.37 285.64 C 688.23 280.51 689.07 275.20 688.84 270.00 C 689.01 265.84 688.24 261.52 689.45 257.47 L 690.28 257.26 Z" />
    <path fill="#fefefe" d=" M 1229.00 259.10 C 1229.08 256.58 1232.19 257.03 1233.95 256.94 C 1244.91 257.21 1256.39 255.86 1266.81 260.09 C 1275.79 263.87 1276.07 278.17 1267.93 283.01 C 1263.73 285.38 1258.76 285.90 1254.04 286.16 C 1245.67 286.24 1237.30 286.19 1228.94 286.12 C 1228.96 277.12 1228.67 268.10 1229.00 259.10 Z" />
    <path fill="#fefefe" d=" M 863.39 277.36 C 869.07 276.21 874.63 274.56 880.13 272.73 C 880.19 280.64 879.58 289.67 873.49 295.47 C 869.05 300.15 862.12 300.86 856.05 300.10 C 852.06 299.62 847.89 297.55 846.21 293.72 C 845.11 289.79 845.97 284.92 849.45 282.42 C 853.51 279.43 858.62 278.59 863.39 277.36 Z" />
    <path fill="#fefefe" d=" M 1075.06 279.99 C 1083.58 277.20 1092.59 276.10 1100.98 272.79 C 1101.42 279.00 1101.38 285.54 1098.26 291.14 C 1095.08 297.89 1087.05 300.83 1079.97 300.29 C 1074.87 300.13 1068.91 297.96 1067.18 292.68 C 1065.79 287.17 1069.84 281.60 1075.06 279.99 Z" />
    <path fill="#fefefe" d=" M 105.86 371.88 C 111.63 365.46 116.71 358.47 122.43 352.01 C 130.37 364.17 138.22 376.40 145.35 389.06 C 129.36 408.09 111.91 425.95 92.63 441.68 C 80.93 450.84 69.07 459.92 56.13 467.28 C 55.75 482.67 56.23 498.07 55.88 513.46 C 43.73 506.53 31.50 499.69 19.78 492.07 C 19.68 478.70 19.82 465.34 19.69 451.98 C 19.75 449.48 19.29 446.21 22.09 445.00 C 41.38 433.22 59.30 419.24 75.65 403.64 C 86.02 393.34 96.51 383.14 105.86 371.88 Z" />
    <path fill="#fefefe" d=" M 388.63 389.07 C 396.16 376.63 403.49 364.04 412.05 352.26 C 423.79 367.59 436.43 382.25 450.30 395.70 C 466.12 412.06 483.83 426.52 502.68 439.25 C 506.36 441.60 510.18 443.76 513.53 446.58 C 501.65 453.45 490.01 460.71 477.99 467.33 C 462.42 458.30 447.96 447.45 434.40 435.64 C 417.63 421.69 402.87 405.54 388.63 389.07 Z" />
    <path fill="#0c4e81" d=" M 864.49 380.56 C 875.89 371.52 891.39 370.20 905.37 371.70 C 916.68 372.62 928.30 376.34 936.54 384.46 C 943.76 392.30 947.17 403.17 946.93 413.72 C 941.44 413.67 935.95 413.69 930.47 413.69 C 929.63 407.04 927.65 400.13 922.52 395.48 C 914.88 387.89 903.32 386.12 892.99 386.82 C 885.07 387.38 876.67 390.13 871.59 396.56 C 867.56 401.28 867.11 407.96 867.99 413.84 C 868.97 419.73 874.38 423.69 879.79 425.30 C 890.41 428.43 901.30 430.49 912.06 433.06 C 919.83 434.63 927.83 436.12 934.71 440.32 C 939.70 443.12 944.01 447.20 946.59 452.35 C 951.81 461.94 951.77 473.60 948.72 483.86 C 945.20 495.23 934.80 503.15 923.81 506.69 C 908.50 511.55 891.72 511.86 876.24 507.62 C 866.05 504.90 857.88 497.61 851.73 489.32 C 846.59 482.05 845.73 472.81 845.99 464.16 C 851.55 464.15 857.12 464.17 862.69 464.15 C 862.77 471.60 864.67 479.47 870.09 484.90 C 877.45 492.70 888.73 494.69 899.00 495.02 C 908.67 494.60 919.30 493.54 926.94 486.95 C 935.13 480.43 935.35 466.93 928.74 459.26 C 922.56 453.53 914.02 451.67 906.06 449.83 C 896.28 447.77 886.63 445.15 876.87 443.01 C 867.20 440.77 857.25 435.46 853.04 426.00 C 849.53 419.69 849.76 412.20 850.45 405.24 C 852.10 395.77 856.64 386.40 864.49 380.56 Z" />
    <path fill="#0c4e81" d=" M 639.02 374.67 C 644.95 374.49 650.89 374.47 656.82 374.72 C 656.80 418.76 656.80 462.81 656.82 506.86 C 650.89 506.89 644.96 506.90 639.04 506.89 C 638.97 462.82 639.00 418.75 639.02 374.67 Z" />
    <path fill="#0c4e81" d=" M 676.05 374.67 C 711.69 374.48 747.33 374.50 782.98 374.67 C 783.01 380.11 783.02 385.55 782.99 390.99 C 768.22 391.02 753.45 390.98 738.68 391.01 C 738.51 429.61 738.56 468.20 738.67 506.80 C 732.43 506.84 726.13 507.32 719.95 506.28 C 720.06 467.86 719.98 429.44 719.99 391.01 C 705.34 390.97 690.68 391.04 676.03 390.98 C 675.99 385.54 675.99 380.11 676.05 374.67 Z" />
    <path fill="#0c4e81" d=" M 1329.16 374.71 C 1334.65 374.47 1340.17 374.41 1345.67 374.85 C 1345.64 380.86 1345.63 386.88 1345.71 392.89 C 1340.19 393.05 1334.66 393.04 1329.15 392.95 C 1329.15 386.87 1329.15 380.79 1329.16 374.71 Z" />
    <path fill="#0c4e81" d=" M 1373.11 384.04 C 1378.62 383.96 1384.15 383.94 1389.67 384.12 C 1389.56 393.07 1389.45 402.02 1389.73 410.97 C 1394.78 411.00 1399.84 411.00 1404.90 411.03 C 1404.94 415.33 1404.96 419.64 1404.93 423.95 C 1399.85 423.97 1394.78 423.99 1389.72 424.02 C 1389.37 443.68 1389.73 463.35 1389.53 483.01 C 1389.65 485.94 1389.28 489.33 1391.30 491.74 C 1395.07 494.94 1400.36 494.05 1404.93 494.24 C 1404.96 498.49 1404.96 502.74 1404.90 507.00 C 1397.06 508.06 1388.43 509.73 1381.09 505.83 C 1375.18 502.55 1373.20 495.39 1373.16 489.06 C 1373.01 467.39 1373.24 445.70 1373.07 424.02 C 1368.76 423.99 1364.46 423.97 1360.17 423.93 C 1360.16 419.63 1360.16 415.34 1360.16 411.05 C 1364.45 411.00 1368.74 410.99 1373.04 410.97 C 1373.21 402.00 1373.08 393.02 1373.11 384.04 Z" />
    <path fill="#0c4e81" d=" M 982.36 418.34 C 990.00 411.08 1000.79 408.52 1011.01 407.72 C 1021.39 407.59 1032.49 410.45 1039.95 418.06 C 1046.67 424.95 1050.20 434.26 1052.40 443.48 C 1054.09 450.14 1053.97 457.06 1054.36 463.88 C 1030.86 463.99 1007.37 463.71 983.88 464.01 C 984.51 472.25 985.44 481.29 991.51 487.51 C 996.71 493.74 1005.24 495.78 1013.05 495.24 C 1021.09 495.32 1029.05 491.19 1033.47 484.45 C 1035.20 481.97 1035.95 479.00 1037.44 476.40 C 1042.13 475.99 1046.92 475.84 1051.60 476.50 C 1051.91 476.70 1052.53 477.11 1052.85 477.31 C 1051.61 485.63 1046.84 493.08 1041.06 499.03 C 1032.36 507.52 1019.77 510.47 1007.92 509.97 C 996.26 509.21 984.36 504.44 977.08 494.97 C 967.88 483.99 965.81 468.86 966.87 455.00 C 967.59 441.55 972.14 427.58 982.36 418.34 Z" />
    <path fill="#0c4e81" d=" M 1103.58 408.67 C 1113.05 406.63 1123.26 407.81 1131.93 412.16 C 1142.80 418.23 1148.78 430.75 1149.12 442.91 C 1143.92 443.04 1138.72 443.04 1133.54 442.84 C 1132.36 436.64 1129.76 430.38 1124.52 426.55 C 1119.95 422.71 1113.66 422.40 1107.98 422.77 C 1100.54 423.05 1093.78 427.90 1090.15 434.24 C 1086.57 440.54 1084.79 447.78 1084.73 455.01 C 1084.46 465.10 1084.83 475.82 1090.09 484.76 C 1097.21 497.80 1118.52 499.21 1127.22 487.12 C 1130.47 483.07 1132.21 478.11 1133.45 473.13 C 1138.68 472.94 1143.93 472.94 1149.18 473.08 C 1148.16 483.24 1144.13 493.49 1136.51 500.50 C 1120.29 514.70 1092.78 512.63 1078.67 496.39 C 1071.04 487.47 1066.95 475.73 1067.10 464.02 C 1066.56 449.99 1069.02 435.10 1077.74 423.71 C 1083.76 415.32 1093.54 410.31 1103.58 408.67 Z" />
    <path fill="#0c4e81" d=" M 1296.28 413.26 C 1302.06 408.74 1309.67 407.20 1316.88 407.95 C 1317.06 413.60 1317.01 419.25 1317.00 424.90 C 1308.64 424.59 1299.43 426.07 1293.42 432.41 C 1287.39 438.19 1285.57 446.93 1285.93 455.00 C 1285.95 472.29 1286.02 489.58 1285.93 506.87 C 1280.52 506.89 1275.10 506.88 1269.69 506.88 C 1269.46 474.93 1269.51 442.97 1269.67 411.03 C 1274.77 410.98 1279.88 410.98 1284.99 411.01 C 1284.98 415.86 1284.94 420.72 1285.19 425.57 C 1288.89 421.48 1291.75 416.55 1296.28 413.26 Z" />
    <path fill="#0c4e81" d=" M 1166.02 411.02 C 1171.44 410.97 1176.87 410.97 1182.30 411.06 C 1182.58 432.36 1182.25 453.67 1182.44 474.98 C 1182.50 480.94 1183.58 487.58 1188.37 491.68 C 1193.67 496.04 1201.12 495.71 1207.51 494.60 C 1216.29 492.93 1222.64 485.21 1225.09 476.96 C 1227.79 468.92 1227.17 460.34 1227.20 452.00 C 1227.19 438.35 1227.23 424.70 1227.17 411.06 C 1232.72 410.96 1238.27 410.96 1243.83 411.06 C 1243.77 438.37 1243.81 465.68 1243.80 492.99 C 1243.73 497.18 1244.12 501.40 1243.61 505.58 C 1243.36 505.85 1242.87 506.40 1242.63 506.67 C 1237.82 507.23 1232.98 506.80 1228.16 506.84 C 1228.18 502.37 1228.17 497.91 1227.94 493.46 C 1223.83 498.14 1220.02 503.40 1214.28 506.21 C 1203.86 511.28 1191.13 511.19 1180.69 506.24 C 1171.98 502.02 1166.05 492.78 1166.08 483.06 C 1165.93 459.05 1166.05 435.03 1166.02 411.02 Z" />
    <path fill="#0c4e81" d=" M 1329.14 411.05 C 1334.66 410.96 1340.19 410.95 1345.72 411.10 C 1345.60 443.01 1345.62 474.91 1345.71 506.81 C 1340.19 506.90 1334.67 506.91 1329.16 506.85 C 1329.15 474.92 1329.20 442.98 1329.14 411.05 Z" />
    <path fill="#0c4e81" d=" M 1410.81 411.10 C 1417.05 410.93 1423.29 410.91 1429.54 411.15 C 1435.56 430.12 1441.69 449.04 1447.95 467.93 C 1450.24 474.61 1451.80 481.57 1454.98 487.92 C 1458.39 480.18 1460.17 471.86 1463.05 463.92 C 1468.72 446.29 1475.00 428.86 1480.25 411.10 C 1486.41 410.93 1492.58 410.99 1498.76 411.01 C 1484.67 449.66 1471.41 488.64 1455.47 526.58 C 1452.01 534.00 1448.05 542.90 1439.40 545.23 C 1432.76 546.61 1425.82 546.26 1419.20 545.00 C 1419.17 540.05 1419.18 535.11 1419.21 530.17 C 1424.28 531.01 1429.61 532.27 1434.67 530.77 C 1439.35 528.07 1440.78 522.37 1442.95 517.79 C 1444.13 514.28 1446.82 510.64 1445.33 506.83 C 1433.76 474.94 1422.22 443.05 1410.81 411.10 Z" />
    <path fill="#fefefe" d=" M 993.05 430.05 C 1000.82 422.02 1013.73 420.57 1023.61 425.30 C 1033.03 430.00 1037.03 441.13 1037.25 451.10 C 1019.44 451.22 1001.62 451.29 983.81 451.06 C 984.50 443.28 987.28 435.51 993.05 430.05 Z" />
</svg>

